HIERARCHY
ROOT hip
{
	OFFSET 0.000000 0.000000 0.000000 
	CHANNELS 6 Xposition Yposition Zposition Xrotation Zrotation Yrotation
	JOINT abdomen
	{
		OFFSET 0.000000 3.402643 0.000000 
		CHANNELS 3 Xrotation Zrotation Yrotation
		JOINT chest
		{
			OFFSET 0.000000 8.438565 -0.680529 
			CHANNELS 3 Xrotation Zrotation Yrotation
			JOINT neck
			{
				OFFSET 0.000000 10.207942 -0.272212 
				CHANNELS 3 Xrotation Zrotation Yrotation
				JOINT head
				{
					OFFSET 0.000000 3.130431 0.000000 
					CHANNELS 3 Xrotation Zrotation Yrotation
					End Site
					{
						OFFSET 0.000000 3.130435 0.000000 
					}
				}
			}
			JOINT lCollar
			{
				OFFSET 3.470700 6.669187 -0.816635 
				CHANNELS 3 Yrotation Zrotation Xrotation
				JOINT lShldr
				{
					OFFSET 3.198488 0.000000 0.000000 
					CHANNELS 3 Zrotation Yrotation Xrotation
					JOINT lForeArm
					{
						OFFSET 10.139888 0.000000 0.000000 
						CHANNELS 3 Yrotation Zrotation Xrotation
						JOINT lHand
						{
							OFFSET 8.370511 0.000000 0.000000 
							CHANNELS 3 Zrotation Yrotation Xrotation
							End Site
							{
								OFFSET 4.083176 0.000000 0.000000 
							}
						}
					}
				}
			}
			JOINT rCollar
			{
				OFFSET -3.470700 6.669187 -0.816635 
				CHANNELS 3 Yrotation Zrotation Xrotation
				JOINT rShldr
				{
					OFFSET -3.198488 0.000000 0.000000 
					CHANNELS 3 Zrotation Yrotation Xrotation
					JOINT rForeArm
					{
						OFFSET -10.139888 0.000000 0.000000 
						CHANNELS 3 Yrotation Zrotation Xrotation
						JOINT rHand
						{
							OFFSET -8.370511 0.000000 0.000000 
							CHANNELS 3 Zrotation Yrotation Xrotation
							End Site
							{
								OFFSET -4.083176 0.000000 0.000000 
							}
						}
					}
				}
			}
		}
	}
	JOINT lThigh
	{
		OFFSET 5.308129 -1.633274 1.361059 
		CHANNELS 3 Xrotation Zrotation Yrotation
		JOINT lShin
		{
			OFFSET -2.041588 -20.007561 0.000000 
			CHANNELS 3 Xrotation Zrotation Yrotation
			JOINT lFoot
			{
				OFFSET 0.000000 -19.190928 -1.224953 
				CHANNELS 3 Xrotation Yrotation Zrotation
				End Site
				{
					OFFSET 0.000000 -2.449906 4.627600 
				}
			}
		}
	}
	JOINT rThigh
	{
		OFFSET -5.308129 -1.633274 1.361059 
		CHANNELS 3 Xrotation Zrotation Yrotation
		JOINT rShin
		{
			OFFSET 2.041588 -20.007561 0.000000 
			CHANNELS 3 Xrotation Zrotation Yrotation
			JOINT rFoot
			{
				OFFSET 0.000000 -19.190928 -1.224953 
				CHANNELS 3 Xrotation Yrotation Zrotation
				End Site
				{
					OFFSET 0.000000 -2.449906 4.627600 
				}
			}
		}
	}
}
MOTION
Frames: 18
Frame Time: 0.033333
-29.390957 50.287304 4.199529 -1.045112 -1.093568 -89.101151 0.000000 0.000000 0.000000 0.361817 -2.978456 -3.456782 4.333252 -1.683073 -3.250955 17.970549 1.117711 0.282175 -8.373037 -1.724827 0.625046 -63.613499 -4.541797 9.188313 -56.606510 -9.846976 16.238630 16.573515 11.631410 -2.399715 0.907045 -0.021022 0.882651 69.406021 -6.278474 39.089535 120.145309 -20.821360 28.768473 -0.564683 -6.623020 -3.535610 5.134328 0.449345 7.964873 14.025929 -4.609334 -9.272332 -17.198608 -0.830685 5.526427 -21.187475 -6.756759 -2.949980 21.906721 2.029535 -6.613495 3.623033 -0.015628 0.015272 
-30.736444 50.079281 4.189186 -0.019531 -0.126953 -88.085899 0.000000 0.000000 0.000000 -0.146608 -2.353508 -3.831876 4.039712 -1.267495 -3.722265 18.449217 1.135376 0.070234 -8.637978 -0.949609 0.260022 -63.706276 -5.877358 10.277589 -56.658123 -9.720618 16.989059 16.016682 11.305686 -2.487535 0.446714 0.410300 0.408987 69.297523 -6.130742 40.635437 120.398041 -21.439312 29.531031 -0.174484 -6.501655 -3.539869 5.271249 0.810547 7.652549 14.887707 -3.878184 -9.395330 -19.244221 -0.878529 5.188338 -21.348875 -6.657287 -3.109477 13.219604 3.455694 -7.296003 5.929466 0.076566 1.243524 
-32.234703 49.884987 4.146349 -0.283206 0.244138 -87.696518 0.000000 0.000000 0.000000 -0.312740 -2.246061 -3.718221 3.888511 -1.254897 -3.743452 18.820595 1.191741 -0.058503 -8.391665 -0.878888 0.120149 -63.857315 -6.540648 10.959890 -56.643948 -9.720557 17.687643 15.616123 11.716552 -2.458626 0.569133 0.418557 0.260473 69.314819 -6.048302 41.857609 120.563141 -21.840778 29.756420 0.179146 -6.255459 -3.544656 7.439427 0.264094 7.152739 13.285134 -3.291586 -7.930509 -20.422035 -0.785654 4.359722 -20.360867 -6.767467 -3.173347 4.312252 4.467107 -6.673564 6.722234 0.072892 1.299958 
-33.857285 49.721130 4.055491 -0.371103 0.410148 -87.365936 0.000000 0.000000 0.000000 -0.381127 -2.148390 -3.686894 3.842308 -1.218207 -3.700657 19.075268 1.363631 -0.079857 -8.275735 -1.018021 0.066797 -63.895622 -6.386884 11.398731 -56.506824 -9.893668 17.429644 15.659233 11.660997 -2.470001 0.670428 0.651860 0.190378 69.074867 -5.954351 42.564690 120.587646 -22.053478 29.938437 1.161895 -5.982101 -3.568206 10.970040 -0.193871 6.774859 9.619307 -2.744983 -6.523733 -20.678398 -0.599747 3.329669 -20.025778 -6.786009 -3.040558 -1.063503 5.084205 -5.350965 5.635878 0.010356 0.987649 
-35.591946 49.529980 3.903648 -0.380883 0.634752 -86.791328 0.000000 0.000000 0.000000 -0.586317 -2.060439 -3.846121 3.751732 -1.082813 -3.863655 19.417988 1.534763 -0.087567 -8.401928 -1.009053 -0.115483 -64.037582 -4.966522 11.582646 -56.200344 -10.064700 17.894663 15.390983 11.366838 -2.520472 0.473678 0.787485 -0.011323 69.179276 -6.031847 43.052906 120.496559 -22.271849 30.553539 2.950925 -5.722499 -3.599551 13.162354 -0.116585 6.643553 8.960736 -2.206948 -6.627481 -21.231586 -0.505622 2.682334 -20.637968 -6.794817 -3.084876 -1.667707 5.460897 -5.286000 2.831977 -0.005606 0.070463 
-37.480598 49.354298 3.693868 -0.390655 0.712874 -86.000954 0.000000 0.000000 0.000000 -0.752435 -2.050605 -4.230905 3.649328 -0.978027 -4.234454 19.555483 1.668288 -0.057930 -8.743361 -1.008377 -0.287051 -64.141129 -2.713304 11.721693 -56.065685 -10.354075 17.418116 15.447098 12.144704 -2.421976 0.051090 0.849606 -0.186425 69.494843 -6.141290 43.262413 120.532120 -22.374125 31.114841 2.864473 -5.737180 -3.595337 13.751781 0.440696 6.716861 12.174065 -1.555841 -8.263511 -21.849848 -0.481155 2.542784 -19.607519 -6.591498 -3.378460 -1.775639 5.540888 -6.644367 1.719156 -0.005848 -0.511004 
-39.581551 49.263817 3.420463 -0.273441 0.273434 -85.421227 0.000000 0.000000 0.000000 -0.723076 -1.952970 -4.506622 3.748574 -0.880196 -4.523539 19.625263 1.897954 -0.108795 -9.036626 -0.911492 -0.247041 -64.429482 0.324551 11.191158 -55.577221 -10.642129 17.882278 15.541540 12.425954 -2.382101 -0.280148 1.068492 -0.168090 69.813026 -6.634836 43.211849 120.646835 -22.330734 30.967129 1.670173 -5.717677 -3.573742 14.209772 1.367637 7.063665 16.894281 -0.851187 -10.954988 -21.094288 -0.591528 3.135064 -18.518250 -6.110744 -3.771615 0.489230 5.353311 -8.844365 5.085188 0.010919 0.496627 
-41.793743 49.358833 3.097083 0.927745 -0.273402 -84.897049 0.000000 0.000000 0.000000 -0.800880 -0.898350 -4.753069 3.894984 -0.160714 -4.617447 19.966379 1.761677 -0.124415 -9.114694 -0.036723 -0.140863 -65.414139 4.122967 9.835581 -54.029087 -10.836601 20.010746 15.747910 11.892859 -2.429541 -0.578519 2.222770 -0.208017 69.625107 -7.555568 43.005352 120.717102 -22.184401 30.322769 1.402789 -5.625628 -3.559764 13.903499 3.320679 8.008374 22.984266 0.231129 -12.051876 -18.150280 -0.496629 3.161566 -17.293089 -5.106782 -4.589025 2.743952 6.278867 -11.032236 9.301185 0.151378 1.867450 
-44.000900 49.646137 2.730578 3.125435 -0.955608 -85.706627 0.000000 0.000000 0.000000 -0.800869 0.849526 -4.484529 3.986275 0.918844 -3.860399 20.627363 1.127069 0.103466 -8.837774 1.183805 0.122660 -66.945824 8.218396 7.405231 -51.835960 -10.836760 21.102556 16.139719 12.215933 -2.364792 -0.147985 3.935772 -0.172621 69.347778 -8.616669 41.988045 120.784370 -21.804150 29.450438 1.754946 -5.839928 -3.578681 13.384802 5.868820 9.805089 29.001587 0.738001 -11.660017 -12.178298 -0.354766 2.965974 -14.402656 -2.870915 -4.808548 2.314068 7.215269 -11.281537 9.839599 0.191452 2.208637 
-46.054031 49.900841 2.339195 4.337115 -1.334061 -87.474419 0.000000 0.000000 0.000000 -0.791480 1.962703 -3.904047 4.094896 1.428652 -2.590135 21.006430 0.543650 0.568862 -8.090698 1.976331 0.247571 -68.962341 13.001884 3.891086 -50.573380 -10.452224 21.465218 16.136396 13.244089 -2.228817 0.875612 4.668118 -0.200892 69.505341 -9.482631 40.765728 121.066986 -21.469749 29.075306 3.169281 -6.658950 -3.643255 10.995883 7.861472 11.442901 36.215393 0.776766 -10.218801 -2.246101 -0.128920 2.589365 -12.856932 -0.478526 -4.141259 4.081672 7.067522 -11.094100 7.889153 0.130322 1.932537 
-47.904301 50.020893 1.971127 4.786455 -1.333227 -88.197762 0.000000 0.000000 0.000000 -0.889385 2.294646 -3.971130 4.192720 1.594815 -2.056253 20.966867 0.190783 1.086773 -7.717629 2.690804 0.198238 -71.665176 18.127878 -0.282776 -50.509583 -9.855293 20.874598 16.100870 14.544116 -2.061936 1.008207 4.471739 -0.279000 69.599586 -9.921254 40.463158 121.623047 -21.463055 29.123547 2.951085 -6.739763 -3.639046 6.392584 10.171764 11.312811 43.644470 0.841393 -10.962717 10.996133 -0.287968 -5.751167 -12.741682 0.985915 -3.899804 7.878706 6.655935 -11.755328 4.997372 0.038579 0.999080 
-49.652763 50.129116 1.655638 5.197283 -1.575530 -87.633736 0.000000 0.000000 0.000000 -0.742873 2.460731 -4.533820 4.393629 1.881295 -2.297458 20.820314 0.000000 1.406250 -8.195987 3.396214 0.403021 -74.430359 22.491066 -4.537283 -50.200699 -9.418830 19.429026 16.110964 15.142364 -1.979091 0.239610 4.665819 -0.110132 69.192825 -9.886943 40.019138 122.117485 -21.263803 28.255009 1.678465 -6.519340 -3.590163 1.141100 12.171766 9.508438 50.799934 2.225594 -10.622025 20.770250 -2.750231 -14.394816 -11.636458 1.981504 -3.976140 10.332716 6.445011 -12.202710 1.971382 -0.021629 -0.786040 
-51.317539 50.269680 1.433514 5.452495 -1.983181 -87.093788 0.000000 0.000000 0.000000 -0.400837 2.705012 -4.706397 4.501125 2.154508 -2.537230 21.084063 -0.200232 1.371663 -8.593295 3.639639 0.763529 -76.266922 25.666233 -7.643122 -49.810986 -9.278961 17.007557 15.507618 15.185420 -2.042751 -0.593198 5.065457 0.255710 68.676964 -9.487353 38.510807 122.168121 -20.604105 26.684614 1.583389 -7.043334 -3.602650 -4.247122 12.827860 7.853875 57.691944 3.188492 -4.715268 22.585012 -2.932473 -14.513165 -9.452941 2.704235 -4.081168 10.865461 6.433872 -12.445087 -0.511260 -0.006171 -2.586489 
-52.908825 50.442848 1.281596 5.042883 -2.227681 -87.394028 0.000000 0.000000 0.000000 -0.136848 2.490227 -4.166096 4.523832 2.010835 -2.348886 21.728872 -0.418463 1.113295 -8.094674 3.287035 0.939165 -77.096405 28.142466 -9.183674 -49.412479 -9.329635 15.336155 14.611487 14.776137 -2.177271 -0.552362 5.028814 0.490154 68.431320 -9.469149 36.587135 121.721336 -19.825644 25.289520 0.975120 -7.078953 -3.591530 -8.755237 12.521148 6.845627 61.019402 3.120855 -1.690454 18.741516 -1.869436 -11.466733 -6.950521 2.771930 -4.257664 10.384915 6.431672 -12.081998 -2.314811 0.065588 -3.804586 
-54.460716 50.580517 1.147611 4.280397 -2.161927 -88.287025 0.000000 0.000000 0.000000 -0.195429 1.982410 -3.258710 4.490946 1.692699 -1.820924 22.452705 -0.843878 0.905124 -6.907267 2.838211 0.762300 -77.546562 30.593374 -9.585671 -49.182339 -9.331463 16.335743 14.510125 14.220199 -2.259080 0.342315 4.676237 0.388733 68.683159 -9.892628 34.958103 121.138504 -19.272615 24.983767 0.270862 -7.130478 -3.567592 -12.460143 11.698280 6.176943 61.060169 2.525146 -3.198370 12.871471 -0.854715 -7.808402 -5.494783 2.401190 -4.411086 11.464949 6.190770 -10.644384 -4.485662 0.144916 -4.051840 
-55.981533 50.644447 1.061082 3.625682 -2.183126 -89.542862 0.000000 0.000000 0.000000 -0.205164 1.660146 -2.164145 4.460155 1.299834 -0.958747 23.450285 -1.142202 0.702967 -5.321557 2.624100 0.658645 -77.975273 32.773933 -9.445261 -49.163391 -9.354156 18.030624 14.785828 13.790033 -2.279387 1.359789 4.232519 0.341526 68.785583 -10.200212 34.996632 121.122162 -19.378216 25.772024 -0.376916 -7.629178 -3.545213 -15.086654 10.838787 5.722825 57.983723 1.664934 -5.438224 8.515980 -0.382183 -5.008722 -4.329325 1.941001 -4.631437 13.249683 5.954499 -9.117742 -6.937755 0.219314 -3.632051 
-57.458046 50.671501 1.055217 2.873782 -2.477353 -90.671501 0.000000 0.000000 0.000000 0.019536 1.328125 -1.200493 4.716647 0.858757 -0.117016 23.538343 -1.170043 0.566711 -4.024159 2.389281 0.807734 -78.578262 34.465157 -9.610639 -49.218220 -9.414206 18.273197 14.767897 13.524275 -2.312249 2.210131 3.847311 0.554823 68.479424 -10.221050 36.440876 121.481171 -19.948416 26.478802 -1.057922 -7.739030 -3.528927 -16.851011 9.635561 5.247108 52.891994 0.854556 -6.497959 4.074002 -0.073024 -2.683514 -2.574202 1.180257 -5.012025 14.200149 5.829734 -7.640665 -9.168000 0.259902 -3.313044 
-58.855534 50.656525 1.040116 2.316708 -2.527233 -91.254883 0.000000 0.000000 0.000000 0.166043 1.044918 -0.631560 4.848026 0.657284 0.434591 23.197746 -1.389247 0.653813 -3.361009 2.004912 0.893622 -79.372818 35.802925 -10.090155 -49.113377 -9.389511 18.610584 15.476240 13.997949 -2.188804 2.663139 3.559895 0.685818 68.286186 -9.812782 38.156990 121.734009 -20.602909 27.092520 -0.949395 -7.458450 -3.528626 -18.514725 8.651993 4.605628 46.664417 0.282293 -6.994093 -0.270338 -0.001246 -1.453558 -1.300233 0.681719 -5.183076 15.268476 5.507316 -6.471569 -11.179215 0.268008 -2.871791 
